<?xml version="1.0" encoding="UTF-8"?>
<svg width="980px" height="830px" viewBox="0 0 980 830" version="1.1" xmlns="http://www.w3.org/2000/svg" xmlns:xlink="http://www.w3.org/1999/xlink">
    <!-- Generator: Sketch 46.2 (44496) - http://www.bohemiancoding.com/sketch -->
    <title>medium</title>
    <desc>Created with Sketch.</desc>
    <defs></defs>
    <g id="Page-1" stroke="none" stroke-width="1" fill="none" fill-rule="evenodd">
        <g id="medium" fill-rule="nonzero" fill="#FEFEFE">
            <path d="M326.5,155.2 L326.5,796.7 C326.5,805.8 324.2,813.6 319.7,819.9 C315.2,826.2 308.5,829.5 299.7,829.5 C293.5,829.5 287.5,828 281.7,825.1 L27.3,697.7 C19.6,694.1 13.2,687.9 7.9,679.4 C2.6,670.9 0,662.4 0,654 L0,30.5 C0,23.2 1.8,17 5.5,11.9 C9.1,6.8 14.4,4.2 21.4,4.2 C26.5,4.2 34.5,6.9 45.5,12.4 L325,152.4 C325.9,153.6 326.5,154.5 326.5,155.2 L326.5,155.2 Z M361.5,210.5 L653.5,684.1 L361.5,538.6 L361.5,210.5 Z M980,220.3 L980,796.7 C980,805.8 977.4,813.2 972.3,818.8 C967.2,824.5 960.3,827.3 951.5,827.3 C942.7,827.3 934.2,824.9 925.8,820.2 L684.7,699.9 L980,220.3 Z M978.4,154.7 C978.4,155.8 931.6,232.3 838.1,384.1 C744.6,536 689.8,624.8 673.8,650.7 L460.5,304 L637.7,15.8 C643.9,5.6 653.4,0.5 666.1,0.5 C671.2,0.5 675.9,1.6 680.3,3.8 L976.2,151.5 C977.6,152.1 978.4,153.2 978.4,154.7 L978.4,154.7 Z" id="Shape"></path>
        </g>
    </g>
</svg>